<svg width="16" height="16" viewBox="0 0 16 16" fill="none" xmlns="http://www.w3.org/2000/svg">
<g clip-path="url(#clip0_497_1342)">
<path d="M2.04103 14.0809H6.30214C6.61246 14.0809 6.83925 13.8699 6.83925 13.5847C6.83925 13.3053 6.61246 13.0942 6.30214 13.0942H2.05297C1.46214 13.0942 1.06229 12.6266 1.06229 12.1247C1.06229 11.9707 1.0981 11.7996 1.19358 11.64L3.66431 7.39689C3.78964 7.18584 3.77174 6.84368 3.49124 6.68968C3.20478 6.53001 2.88848 6.6954 2.76912 6.9064L0.274525 11.1609C0.0954869 11.4746 0 11.7996 0 12.1247C0 13.2026 0.793736 14.0809 2.04103 14.0809ZM4.33272 9.81498C4.61321 9.75226 4.76837 9.49559 4.69079 9.22754L4.04626 6.78668C3.98061 6.56424 3.88512 6.41024 3.71205 6.31329C3.52704 6.21635 3.35398 6.21063 3.11526 6.27335L0.57889 6.95773C0.292429 7.0319 0.149199 7.28851 0.226782 7.53945C0.298396 7.80178 0.572921 7.9615 0.847447 7.87022L3.163 7.22578L3.72399 9.46137C3.78367 9.73515 4.07013 9.88343 4.33272 9.81498ZM11.4345 5.86846C11.6076 6.15929 11.8762 6.24485 12.1626 6.07946C12.4431 5.9198 12.5088 5.66313 12.3357 5.36658L9.75757 0.980929C9.38161 0.33648 8.69527 0 8.00299 0C7.31072 0 6.62438 0.33078 6.24243 0.980929L4.05819 4.69931C3.89109 4.98447 3.98061 5.25253 4.23723 5.39508C4.49982 5.53769 4.81015 5.45214 4.95935 5.19547L7.14364 1.45999C7.33462 1.14062 7.66877 0.99804 8.00299 0.99804C8.33721 0.99804 8.66544 1.14062 8.85043 1.45999L11.4345 5.86846ZM11.7747 6.49007C12.0134 6.55285 12.1865 6.55285 12.3715 6.45018C12.5446 6.34752 12.6401 6.19924 12.7057 5.9768L13.3503 3.5359C13.4279 3.26786 13.2727 3.01693 12.9922 2.95419C12.7296 2.88576 12.4431 3.02833 12.3835 3.30208L11.8225 5.53769L9.50689 4.89325C9.23238 4.81336 8.96385 4.9617 8.88624 5.22403C8.80869 5.48063 8.95187 5.7373 9.23837 5.81141L11.7747 6.49007ZM8.92804 14.0809H13.959C15.2003 14.0809 16 13.2026 16 12.1247C16 11.7996 15.9105 11.4803 15.7255 11.1609L13.6129 7.54517C13.4517 7.27712 13.1474 7.2144 12.8967 7.35695C12.6401 7.49956 12.5506 7.79611 12.6997 8.04706L14.8005 11.64C14.896 11.7996 14.9318 11.9707 14.9318 12.1247C14.9318 12.6266 14.5259 13.0942 13.9411 13.0942H8.92804C8.57592 13.0942 8.37302 13.2711 8.37302 13.5847C8.37302 13.8984 8.57592 14.0809 8.92804 14.0809ZM10.0739 15.8545C10.2828 16.0541 10.5871 16.0428 10.7841 15.8545C10.981 15.6663 10.981 15.3641 10.7721 15.1702L9.02949 13.5847L10.7721 11.9992C10.981 11.8054 10.981 11.5031 10.7841 11.3206C10.5871 11.1267 10.2828 11.121 10.0739 11.3206L8.18798 13.0771C8.01491 13.2368 7.93137 13.3851 7.93137 13.5847C7.93137 13.7843 8.01491 13.9383 8.18798 14.098L10.0739 15.8545Z" fill="#34C759"/>
</g>
<defs>
<clipPath id="clip0_497_1342">
<rect width="16" height="16" fill="white"/>
</clipPath>
</defs>
</svg>
