<svg width="16" height="16" viewBox="0 0 16 16" fill="none" xmlns="http://www.w3.org/2000/svg">
<path d="M3.30571 14.5441H12.0467C14.2694 14.5441 16 12.8653 16 10.715C16 8.54926 14.228 6.91192 11.8342 6.91711C10.9482 5.1399 9.34717 4.04146 7.32644 4.04146C4.7513 4.04146 2.59068 6.06737 2.35752 8.72021C1.02591 9.09325 0.0880832 10.1969 0.0880832 11.6218C0.0880832 13.2383 1.26425 14.5441 3.30571 14.5441ZM3.29534 13.627C1.85492 13.627 1.00518 12.8135 1.00518 11.6477C1.00518 10.6373 1.6684 9.89118 2.79275 9.59066C3.12954 9.50779 3.24871 9.35753 3.27462 9.01558C3.43006 6.72021 5.20208 4.95855 7.32644 4.95855C9.02591 4.95855 10.3057 5.91193 11.057 7.46117C11.2021 7.76168 11.3731 7.8601 11.7461 7.8601C13.8187 7.8601 15.0778 9.16584 15.0778 10.7409C15.0778 12.3523 13.7772 13.627 12.1036 13.627H3.29534ZM0.932643 8.057C1.44041 8.057 1.84975 7.64766 1.84975 7.12954C1.84975 6.61659 1.44041 6.21244 0.932643 6.21244C0.409327 6.21244 0 6.61659 0 7.12954C0 7.64766 0.409327 8.057 0.932643 8.057ZM10.7202 3.74094C11.1969 3.74094 11.5907 3.34715 11.5907 2.87047C11.5907 2.39378 11.1969 2 10.7202 2C10.2435 2 9.84978 2.39378 9.84978 2.87047C9.84978 3.34715 10.2435 3.74094 10.7202 3.74094ZM13.5078 6.0311C14.2228 6.0311 14.8031 5.45596 14.8031 4.73057C14.8031 4.00519 14.2228 3.43005 13.5078 3.43005C12.7772 3.43005 12.1969 4.00519 12.1969 4.73057C12.1969 5.45596 12.7772 6.0311 13.5078 6.0311Z" fill="#34C759"/>
<path d="M6.269 12.2952C7.13946 12.2952 7.64207 11.6579 7.6887 10.9636C7.69905 10.7408 7.56434 10.6009 7.37779 10.6009C7.20164 10.6009 7.10837 10.7045 7.06173 10.9066C6.97365 11.3211 6.75607 11.6993 6.269 11.6993C5.54881 11.6993 5.32082 10.9273 5.32082 10.119C5.32082 9.33661 5.55915 8.55943 6.2638 8.55943C6.75087 8.55943 6.95296 8.94282 7.04618 9.35736C7.09282 9.5646 7.1861 9.66308 7.3623 9.66308C7.54879 9.66308 7.68351 9.52316 7.67316 9.30038C7.62652 8.60087 7.12391 7.96875 6.25346 7.96875C5.15502 7.96875 4.66797 8.94802 4.66797 10.119C4.66797 11.2641 5.11875 12.2952 6.269 12.2952ZM9.51254 12.2952C10.4815 12.2952 11.0928 11.4558 11.0928 10.1294C11.0928 8.80297 10.4815 7.96875 9.50734 7.96875C8.53327 7.96875 7.91669 8.80297 7.91669 10.1294C7.91669 11.4558 8.53327 12.2952 9.51254 12.2952ZM9.51254 11.6993C8.9374 11.6993 8.57471 11.1138 8.57471 10.1294C8.57471 9.15012 8.9322 8.55943 9.50734 8.55943C10.0773 8.55943 10.44 9.15012 10.44 10.1294C10.44 11.1138 10.0825 11.6993 9.51254 11.6993Z" fill="#34C759"/>
</svg>
