<svg width="16" height="16" viewBox="0 0 16 16" fill="none" xmlns="http://www.w3.org/2000/svg">
<g clip-path="url(#clip0_497_1275)">
<path d="M8.41457 14.0422C9.89478 14.0422 11.1539 11.7652 11.4795 11.2313C11.8848 10.5685 11.7005 9.90562 11.7005 9.51283C11.7005 9.22437 12.5358 8.65976 12.5358 7.93558C12.5358 7.18677 10.9083 6.65899 10.9083 6.30919C10.9083 6.10049 11.0864 5.84273 11.2706 5.84273C11.6023 5.84273 12.4376 6.94745 12.9597 6.94745C13.2729 6.94745 13.3343 6.6774 13.494 6.6774C13.709 6.6774 13.9117 8.97273 14.9497 9.48832L15.2445 8.8439C14.2618 8.51245 14.6058 5.89183 13.5862 5.89183C13.2299 5.89183 13.0518 6.20483 12.886 6.20483C12.7816 6.20483 12.5543 6.01457 12.0998 5.63406C11.8726 5.44994 11.6453 5.22286 11.2276 5.22286C10.7362 5.22286 10.2449 5.78749 10.2449 6.31528C10.2449 7.18677 11.8234 7.57346 11.8234 7.93558C11.8234 8.12582 11.7374 8.27923 11.4426 8.61677C11.1232 8.97889 10.9819 9.21211 10.9819 9.51283C10.9819 9.64173 10.9942 9.76447 11.0003 9.88721C11.0495 10.4396 11.0127 10.6421 10.8468 10.9183C10.4722 11.5013 9.43415 13.3302 8.41457 13.3302C7.4687 13.3302 7.56084 12.0046 7.56084 10.8139C7.56084 9.67856 6.65793 8.83158 5.46026 8.83158C4.48982 8.83158 4.01688 8.35904 4.01688 7.43841C4.01688 6.20483 5.30671 5.33333 6.60265 5.33333C7.41958 5.33333 8.08293 5.77522 8.74011 5.77522C9.25603 5.77522 9.6061 5.03874 9.6061 4.43728C9.6061 3.71308 8.09519 2.9275 7.61612 2.9275C7.24756 2.9275 7.1063 3.14231 7.02033 3.62102L7.18002 3.59647L6.92819 3.41235C6.60264 3.18527 6.33245 3.04411 6.03761 3.04411C5.276 3.04411 5.24529 4.0445 4.81535 4.0445C4.69251 4.0445 4.6188 3.97085 4.6188 3.8481C4.6188 3.46145 5.47254 2.76179 5.48482 1.72459L5.49097 1.12927H4.8092V1.77982C4.8092 2.79248 3.94932 3.1914 3.94932 3.90947C3.94932 4.35749 4.26256 4.64595 4.74164 4.64595C5.6568 4.64595 5.64452 3.65784 6.08674 3.65784C6.41843 3.67011 6.75623 4.16724 7.29675 4.16724C7.65298 4.16724 7.80651 3.9463 7.85563 3.49827L7.62839 3.55964C8.0706 3.72535 8.92439 4.12428 8.92439 4.50479C8.92439 4.74415 8.83835 5.05715 8.6418 5.05715C8.28557 5.05715 7.39499 4.61526 6.60265 4.61526C4.9259 4.61526 3.30441 5.81818 3.30441 7.43841C3.30441 8.75793 4.09059 9.5435 5.46026 9.5435C6.25872 9.5435 6.84221 10.0775 6.84221 10.8139C6.84221 11.9923 6.71321 14.0422 8.41457 14.0422ZM10.5028 3.18527C10.6687 3.18527 10.8222 3.34484 11.1109 3.34484C11.2952 3.34484 11.4242 3.18527 11.4242 2.97046C11.4242 2.59609 11.0003 2.30764 10.4415 2.30764C9.77812 2.30764 9.40345 2.52244 9.40345 2.90295C9.40345 3.15458 9.58767 3.32643 9.8395 3.32643C10.0975 3.32643 10.2142 3.18527 10.5028 3.18527ZM7.99689 15.9877C12.413 15.9877 16 12.4097 16 7.99692C16 3.58419 12.413 0 7.99689 0C3.5808 0 0 3.58419 0 7.99692C0 12.4097 3.5808 15.9877 7.99689 15.9877ZM7.99689 15.0549C4.09673 15.0549 0.933591 11.8941 0.933591 7.99692C0.933591 4.09359 4.09673 0.932876 7.99689 0.932876C11.9033 0.932876 15.0664 4.09359 15.0664 7.99692C15.0664 11.8941 11.9033 15.0549 7.99689 15.0549Z" fill="#34C759"/>
</g>
<defs>
<clipPath id="clip0_497_1275">
<rect width="16" height="16" fill="white"/>
</clipPath>
</defs>
</svg>
