<svg width="16" height="16" viewBox="0 0 16 16" fill="none" xmlns="http://www.w3.org/2000/svg">
<g clip-path="url(#clip0_497_1333)">
<path d="M0 4.58271C0 4.89077 0.257028 5.14749 0.571888 5.14749C0.880321 5.14749 1.13735 4.89077 1.13735 4.58271V2.99105C1.13735 1.84223 1.81847 1.15551 2.9751 1.15551H4.59438C4.90281 1.15551 5.15984 0.898795 5.15984 0.590731C5.15984 0.27625 4.90281 0.0195312 4.59438 0.0195312H2.9751C1.11164 0.0195312 0 1.14268 0 2.99105V4.58271ZM16 4.58271V2.99105C16 1.14268 14.8884 0.0195312 13.0249 0.0195312H11.4056C11.0972 0.0195312 10.8402 0.27625 10.8402 0.590731C10.8402 0.898795 11.0972 1.15551 11.4056 1.15551H13.0249C14.1815 1.15551 14.8627 1.84223 14.8627 2.99105V4.58271C14.8627 4.89077 15.1197 5.14749 15.4281 5.14749C15.743 5.14749 16 4.89077 16 4.58271ZM0 11.4371V13.0287C0 14.8771 1.11164 16.0003 2.9751 16.0003H4.59438C4.90281 16.0003 5.15984 15.7436 5.15984 15.4291C5.15984 15.121 4.90281 14.8643 4.59438 14.8643H2.9751C1.81847 14.8643 1.13735 14.1776 1.13735 13.0287V11.4371C1.13735 11.129 0.880321 10.8723 0.571888 10.8723C0.257028 10.8723 0 11.129 0 11.4371ZM16 11.4371C16 11.129 15.743 10.8723 15.4281 10.8723C15.1197 10.8723 14.8627 11.129 14.8627 11.4371V13.0287C14.8627 14.1776 14.1815 14.8643 13.0249 14.8643H11.4056C11.0972 14.8643 10.8402 15.121 10.8402 15.4291C10.8402 15.7436 11.0972 16.0003 11.4056 16.0003H13.0249C14.8884 16.0003 16 14.8771 16 13.0287V11.4371Z" fill="#34C759"/>
<path d="M4.17578 11.3273H4.76052V4.67188H4.17578V11.3273ZM5.51233 11.3273H6.64966V4.67188H5.51233V11.3273ZM7.15085 11.3273H7.85773V4.67188H7.15085V11.3273ZM8.49388 11.3273H9.59266V4.67188H8.49388V11.3273ZM10.0425 11.3273H10.9163V4.67188H10.0425V11.3273ZM11.244 11.3273H11.7967V4.67188H11.244V11.3273Z" fill="#34C759"/>
</g>
<defs>
<clipPath id="clip0_497_1333">
<rect width="16" height="16" fill="white"/>
</clipPath>
</defs>
</svg>
