<svg width="16" height="16" viewBox="0 0 16 16" fill="none" xmlns="http://www.w3.org/2000/svg">
<path d="M0.659751 8.48606L1.37306 9.19615L2.08637 8.48606C2.20841 8.36824 2.39358 8.36402 2.51983 8.48606C2.64187 8.61232 2.64187 8.7975 2.51983 8.91953L1.8075 9.62863L2.51983 10.3377C2.64187 10.4556 2.64187 10.6449 2.51983 10.7712C2.39358 10.8932 2.20841 10.8932 2.08637 10.7712L1.37306 10.0611L0.659751 10.7712C0.537711 10.889 0.352545 10.8932 0.226296 10.7712C0.104255 10.6449 0.104255 10.4598 0.226296 10.3377L0.93862 9.62863L0.226296 8.91953C0.104255 8.80172 0.104255 8.61232 0.226296 8.48606C0.352545 8.36402 0.537711 8.36402 0.659751 8.48606Z" fill="#34C759"/>
<path d="M3.97885 12.8054H0.37454C0.168332 12.8054 0 12.6371 0 12.4308C0 12.2289 0.168332 12.0605 0.37454 12.0605H4.21508C4.10327 12.3171 4.02284 12.5681 3.97885 12.8054ZM7.31053 12.8054H4.69538C4.74218 12.5737 4.83233 12.3216 4.9623 12.0605H7.67898C7.56866 12.3311 7.44559 12.5809 7.31053 12.8054ZM16 12.4308C16 12.6371 15.8317 12.8054 15.6255 12.8054H8.11771C8.24078 12.5765 8.34989 12.3259 8.44741 12.0605H15.6255C15.8317 12.0605 16 12.2289 16 12.4308Z" fill="#34C759"/>
<path d="M5.36112 14.8422C7.56628 14.8422 9.02658 12.0437 9.02658 8.47504C9.02658 5.41555 7.65885 3 5.52104 3C4.16175 3 3.10547 4.15729 3.10547 5.64283C3.10547 7.76383 4.79298 9.5818 6.89718 10.5245C6.96026 10.5581 7.01499 10.5666 7.0739 10.5666C7.2633 10.5666 7.40214 10.4193 7.40214 10.2593C7.40214 10.1415 7.34323 10.0321 7.20439 9.96054C5.7946 9.29144 3.82088 7.79326 3.82088 5.64283C3.82088 4.55287 4.56153 3.7112 5.52104 3.7112C7.22542 3.7112 8.31115 5.86165 8.31115 8.47504C8.31115 11.5639 7.09915 14.131 5.44528 14.131C4.88981 14.131 4.63311 13.7691 4.63311 13.2683C4.63311 11.7028 6.91398 8.71489 10.1165 8.71489C10.3522 8.71489 10.4827 8.80746 10.4827 8.9716C10.4827 9.4261 10.2091 9.84273 10.2091 10.314C10.2091 10.7054 10.4911 10.9242 10.8488 10.9242C11.9135 10.9242 13.2265 9.0137 13.6936 9.0137C14.1354 9.0137 13.5884 10.7265 14.8929 10.7265C15.1076 10.7265 15.3727 10.6675 15.5957 10.5287C15.7094 10.4529 15.7893 10.3393 15.7893 10.1962C15.7893 10.0195 15.6715 9.87216 15.4863 9.87216C15.318 9.87216 15.1539 10.0279 14.9561 10.0279C14.3375 10.0279 14.9393 8.22673 13.8914 8.22673C12.974 8.22673 11.5389 10.0994 11.1055 10.0994C11.0466 10.0994 11.0045 10.07 11.0045 9.99002C11.0045 9.74171 11.2696 9.28303 11.2696 8.84534C11.2696 8.32352 10.8488 8.00368 10.167 8.00368C6.55627 8.00368 3.90505 11.3872 3.90505 13.3945C3.90505 14.2404 4.39321 14.8422 5.36112 14.8422Z" fill="#34C759"/>
</svg>
