<svg width="16" height="16" viewBox="0 0 16 16" fill="none" xmlns="http://www.w3.org/2000/svg">
<g clip-path="url(#clip0_497_1291)">
<path d="M2.33127 8.72307C3.13951 8.72307 3.8268 8.31653 4.22268 7.6777C4.61855 8.31653 5.30034 8.72307 6.10858 8.72307C6.92232 8.72307 7.60414 8.3107 8 7.67187C8.39586 8.3107 9.07763 8.72307 9.89142 8.72307C10.6996 8.72307 11.3814 8.31653 11.7828 7.6777C12.1732 8.31653 12.8605 8.72307 13.6687 8.72307C14.9828 8.72307 15.9945 7.64862 16 6.27802V6.17353C16 5.92378 15.9395 5.70308 15.8241 5.48821L13.9326 1.99201V1.41706C13.9326 0.522686 13.4268 0 12.569 0H3.43092C2.57319 0 2.06735 0.522686 2.06735 1.41706V1.99201L0.175945 5.48821C0.0604811 5.69728 0 5.92378 0 6.17353V6.27802C0 7.64862 1.01718 8.72307 2.33127 8.72307ZM2.98556 1.74229V1.57967C2.98556 1.19056 3.189 0.969873 3.55188 0.969873H12.4481C12.811 0.969873 13.0144 1.19056 13.0144 1.57967V1.74229H2.98556ZM1.05017 5.7902L2.67216 2.71216H13.2839L14.9388 5.7902H1.05017ZM0.918212 6.70198H3.74983C3.61786 7.34086 3.12302 7.81127 2.33127 7.81127C1.54502 7.81127 1.05017 7.34086 0.918212 6.70198ZM4.69553 6.70198H7.52712C7.3952 7.34086 6.90036 7.81127 6.10858 7.81127C5.32233 7.81127 4.82749 7.34086 4.69553 6.70198ZM8.47283 6.70198H11.3044C11.1725 7.34086 10.6776 7.81127 9.89142 7.81127C9.09964 7.81127 8.6048 7.34086 8.47283 6.70198ZM12.2502 6.70198H15.0818C14.9498 7.34086 14.455 7.81127 13.6687 7.81127C12.877 7.81127 12.3821 7.34086 12.2502 6.70198ZM2.72164 15.9884H13.2783C14.246 15.9884 14.7959 15.4192 14.7959 14.4145V8.13645L13.8227 8.21781V14.159C13.8227 14.6875 13.5698 14.9604 13.0694 14.9604H2.93058C2.43024 14.9604 2.17732 14.6875 2.17732 14.159V8.20615L1.20412 8.18873V14.4145C1.20412 15.4192 1.75395 15.9884 2.72164 15.9884ZM3.41443 15.5644H7.45567V10.6861C7.45567 10.3608 7.25771 10.1517 6.94985 10.1517H3.92577C3.61786 10.1517 3.41443 10.3608 3.41443 10.6861V15.5644ZM8.76425 10.2679V12.3528C8.76425 12.6781 8.96767 12.8871 9.27559 12.8871H12.2007C12.5086 12.8871 12.7065 12.6781 12.7065 12.3528V10.2679C12.7065 9.94268 12.5086 9.73358 12.2007 9.73358H9.27559C8.96767 9.73358 8.76425 9.94268 8.76425 10.2679Z" fill="#34C759"/>
</g>
<defs>
<clipPath id="clip0_497_1291">
<rect width="16" height="16" fill="white"/>
</clipPath>
</defs>
</svg>
