<svg width="16" height="16" viewBox="0 0 16 16" fill="none" xmlns="http://www.w3.org/2000/svg">
<g clip-path="url(#clip0_497_1299)">
<path d="M8.00228 9.90808C8.49328 9.91691 8.98424 9.79751 9.61286 9.51879L15.4723 6.93545C15.8211 6.78063 16 6.48425 16 6.17016C16 5.86055 15.8211 5.55529 15.4723 5.40047L9.61286 2.81712C8.98424 2.54286 8.49328 2.42343 8.00228 2.42785C7.50676 2.42343 7.02037 2.54286 6.39174 2.81712L0.532262 5.40047C0.17895 5.55529 0 5.86055 0 6.17016C0 6.48425 0.17895 6.78063 0.532262 6.93545L6.39174 9.51879C7.02037 9.79751 7.50676 9.91691 8.00228 9.90808ZM8.00228 9.13839C7.59853 9.13839 7.2131 9.04548 6.69917 8.81546L1.14253 6.36924C1.03241 6.32059 0.977346 6.24979 0.977346 6.17016C0.977346 6.08613 1.03241 6.01533 1.14253 5.96668L6.69917 3.52489C7.2131 3.29487 7.59853 3.20197 8.00228 3.20197C8.40608 3.20197 8.78695 3.29487 9.30083 3.52489L14.8621 5.96668C14.9676 6.01533 15.0227 6.08613 15.0227 6.17016C15.0227 6.24979 14.9676 6.32059 14.8621 6.36924L9.30083 8.81546C8.78695 9.04548 8.40608 9.13839 8.00228 9.13839ZM2.38142 10.4477C2.38142 12.0137 4.54718 13.4779 8.00228 13.4779C11.4528 13.4779 13.6186 12.0137 13.6186 10.4477V7.47956H12.8065V10.4477C12.8065 11.5669 10.9664 12.7347 8.00228 12.7347C5.03817 12.7347 3.19817 11.5669 3.19817 10.4477V7.47956H2.38142V10.4477ZM8.02065 6.78506C8.66304 6.78506 9.24576 6.51079 9.24576 6.16576C9.24576 5.834 8.66304 5.55973 8.02065 5.55973C7.3737 5.55973 6.78638 5.834 6.78638 6.16576C6.78638 6.51079 7.3737 6.78506 8.02065 6.78506ZM4.34529 8.26696L7.94265 6.48425L7.66276 5.97556L3.67537 7.92633L4.34529 8.26696ZM3.67537 13.7521H4.34529V8.26696L3.67537 7.94843V13.7521ZM3.21193 13.7964V15.3092C3.21193 15.7339 3.48724 15.9993 3.92774 15.9993H4.08833C4.52424 15.9993 4.80413 15.7339 4.80413 15.3092V13.7964C4.80413 13.3761 4.52424 13.1107 4.08833 13.1107H3.92774C3.48724 13.1107 3.21193 13.3761 3.21193 13.7964Z" fill="#34C759"/>
</g>
<defs>
<clipPath id="clip0_497_1299">
<rect width="16" height="16" fill="white"/>
</clipPath>
</defs>
</svg>
