<svg width="16" height="16" viewBox="0 0 16 16" fill="none" xmlns="http://www.w3.org/2000/svg">
<g clip-path="url(#clip0_497_1283)">
<path d="M12.8369 13.453L13.5247 12.8147L8.94282 8.27923L14.5136 5.08784L14.053 4.29612L8.54973 7.43841V0.908322H7.62839V8.07058C7.62839 8.25472 7.67141 8.38971 7.81267 8.52477L12.8369 13.453ZM7.99689 15.9877C12.413 15.9877 16 12.4097 16 7.99692C16 3.58419 12.413 0 7.99689 0C3.5808 0 0 3.58419 0 7.99692C0 12.4097 3.5808 15.9877 7.99689 15.9877ZM7.99689 14.8461C4.20728 14.8461 1.14242 11.7837 1.14242 7.99692C1.14242 4.2102 4.20728 1.14768 7.99689 1.14768C11.7865 1.14768 14.8514 4.2102 14.8514 7.99692C14.8514 11.7837 11.7865 14.8461 7.99689 14.8461Z" fill="#34C759"/>
</g>
<defs>
<clipPath id="clip0_497_1283">
<rect width="16" height="16" fill="white"/>
</clipPath>
</defs>
</svg>
